<?xml version="1.0" encoding="UTF-8" standalone="no"?>
<svg
   xmlns:dc="http://purl.org/dc/elements/1.1/"
   xmlns:cc="http://creativecommons.org/ns#"
   xmlns:rdf="http://www.w3.org/1999/02/22-rdf-syntax-ns#"
   xmlns:svg="http://www.w3.org/2000/svg"
   xmlns="http://www.w3.org/2000/svg"
   xmlns:sodipodi="http://sodipodi.sourceforge.net/DTD/sodipodi-0.dtd"
   xmlns:inkscape="http://www.inkscape.org/namespaces/inkscape"
   version="1.1"
   width="77.977997"
   height="50"
   viewBox="0 0 77.977997 50.000001"
   id="svg8"
   sodipodi:docname="Cutout.svg"
   inkscape:version="1.0.2 (e86c870879, 2021-01-15, custom)">
  <metadata
     id="metadata14">
    <rdf:RDF>
      <cc:Work
         rdf:about="">
        <dc:format>image/svg+xml</dc:format>
        <dc:type
           rdf:resource="http://purl.org/dc/dcmitype/StillImage" />
        <dc:title></dc:title>
      </cc:Work>
    </rdf:RDF>
  </metadata>
  <defs
     id="defs12" />
  <sodipodi:namedview
     pagecolor="#ffffff"
     bordercolor="#666666"
     borderopacity="1"
     objecttolerance="10"
     gridtolerance="10"
     guidetolerance="10"
     inkscape:pageopacity="0"
     inkscape:pageshadow="2"
     inkscape:window-width="640"
     inkscape:window-height="480"
     id="namedview10"
     showgrid="false"
     inkscape:zoom="2.7076862"
     inkscape:cx="131.24289"
     inkscape:cy="82.828917"
     inkscape:current-layer="svg8" />
  <g
     transform="matrix(0.40064354,0,0,0.40064354,-57.16563,-47.115669)"
     id="g6"
     style="fill:#000000;stroke-width:2.49598">
    <g
       data-paper-data="{&quot;isPaintingLayer&quot;:true}"
       fill="#ffffff"
       fill-rule="nonzero"
       stroke="none"
       stroke-width="2.49598"
       stroke-linecap="butt"
       stroke-linejoin="miter"
       stroke-miterlimit="10"
       stroke-dasharray="none"
       stroke-dashoffset="0"
       style="mix-blend-mode:normal;fill:#000000"
       id="g4">
      <path
         d="m 259.5002,131.77422 c 4.06981,4.94102 7.52084,10.35569 11.2832,15.53125 1.84042,2.60555 3.68107,5.21087 5.52148,7.81641 4.08008,-1.53144 8.4137,-2.28783 12.75,-2.58984 -0.0492,0.0892 -0.10425,0.17497 -0.15429,0.26367 0.58096,-0.43827 1.46961,-0.39816 2.28125,-0.49609 4.09108,-0.18934 8.19268,0.40981 12.15625,1.40039 5.83658,1.48607 11.36239,4.16637 16.15234,7.81641 12.74719,9.49687 19.65848,26.07713 17.40234,41.81641 -2.03559,16.74092 -14.38003,31.59968 -30.40234,36.79883 -4.25213,1.42574 -8.72555,2.15302 -13.20508,2.26758 1.4e-4,-0.007 -1.3e-4,-0.013 0,-0.0195 0.0224,-1.08336 0.003,-2.16717 -0.0391,-3.25 0.0352,1.0876 0.0481,2.17489 0.0391,3.25 -7.25214,0.0226 -14.59452,-0.13672 -21.88672,-0.17578 -3.61922,-0.10037 -7.49912,0.0589 -10.95507,-0.20313 -4.72842,0.27007 -10.19126,0.11949 -15.20118,0.22852 -20.01812,0.33806 -40.03705,-0.10369 -60.05468,-0.26953 -9.74419,0.0294 -19.39558,-3.55106 -26.81836,-9.85157 -11.8709,-9.8464 -17.56661,-26.16424 -15.13086,-41.30664 0.91662,-6.26377 3.12387,-12.34131 6.49805,-17.70117 7.53499,-12.33455 21.90732,-20.45641 36.47266,-19.32812 1.39541,-11.59287 8.14127,-22.34503 17.87695,-28.76562 0.005,0.005 0.0106,0.009 0.0156,0.0137 3.62753,-2.55694 7.80872,-4.50973 12.10938,-5.75977 3.81209,-1.1381 7.77094,-1.67838 11.72851,-1.66016 11.87274,0.0547 23.73155,5.13458 31.56055,14.17383 z m -44.33594,20.76953 c -0.59728,0.35974 -1.0303,1.08025 -1.29883,2.16211 l -8.16406,32.89258 c -0.45098,1.81697 -0.80024,3.52239 -1.04883,5.11719 -0.24856,1.5948 -0.26368,3.53961 -0.0449,5.83203 l 1.34766,12.8125 c 0.0588,0.97906 0.34277,1.83397 0.85352,2.56445 0.51074,0.73047 1.22042,1.2081 2.12891,1.43359 l 11.24609,2.79102 c 0.90849,0.22553 1.72788,0.20562 2.45703,-0.0625 0.7378,-0.27334 1.32222,-0.8095 1.75586,-1.60742 l 7.45313,-12.89258 c 0.31453,-0.52564 0.62293,-0.85389 0.92773,-0.98437 0.30651,-0.1374 0.63089,-0.16448 0.9707,-0.0801 0,0 0.22757,0.0576 0.34961,0.0879 0.13352,0.0331 0.41992,0.10351 0.41992,0.10351 0.33981,0.0844 0.61168,0.25864 0.81836,0.52344 0.2084,0.25786 0.32626,0.69275 0.35156,1.30273 l 0.47461,14.85938 c 0.003,0.96528 0.32175,1.74148 0.95703,2.32617 0.64393,0.57947 1.42159,0.98154 2.33008,1.20703 l 11.32813,2.81055 c 0.90849,0.2255 1.70752,0.10862 2.39648,-0.35352 0.68897,-0.46215 1.2813,-1.08475 1.77735,-1.86718 l 7.14062,-10.5293 c 1.25667,-1.91885 2.14784,-3.64202 2.67383,-5.16797 0.53465,-1.53117 1.02753,-3.20451 1.47852,-5.02148 l 8.20507,-33.06055 c 0.26853,-1.08186 0.2202,-1.92247 -0.14648,-2.52148 -0.35803,-0.60422 -1.0783,-1.04006 -2.16016,-1.30859 l -12.6914,-3.15039 c -1.08186,-0.26852 -1.9253,-0.22044 -2.53125,0.14453 -0.59729,0.35974 -1.0303,1.0822 -1.29883,2.16406 l -7.78125,31.35156 -2.28711,-11.96289 c -0.21151,-1.07585 -0.63927,-1.9049 -1.2832,-2.48437 -0.63527,-0.58469 -1.49431,-1.01077 -2.57617,-1.2793 l -3.57812,-0.88867 c -1.07492,-0.26677 -2.03312,-0.29031 -2.875,-0.0723 -0.83323,0.21284 -1.59794,0.74338 -2.29492,1.59375 l -7.60742,9.50976 7.7832,-31.35351 c 0.26853,-1.08186 0.21824,-1.92248 -0.14844,-2.52149 -0.35802,-0.60422 -1.07634,-1.04006 -2.1582,-1.30859 l -13.12891,-3.25781 c -0.53746,-0.1334 -1.01533,-0.1886 -1.43555,-0.16406 -0.42022,0.0245 -0.78296,0.12806 -1.08594,0.31055 z m 73.08594,1.35352 c 0.0242,-0.0392 0.0521,-0.076 0.0762,-0.11523 5.6e-4,-0.003 0.001,-0.005 0.002,-0.008 -0.0254,0.0414 -0.0526,0.0817 -0.0781,0.12305 z m -15.10938,49.59375 c 0.60511,3.83334 1.72801,7.56815 3.29297,11.10938 -1.55425,-3.548 -2.66195,-7.29121 -3.28125,-11.11328 -0.004,0.001 -0.008,0.003 -0.0117,0.004 z m 19.62305,30.54101 c 0.11256,0.62209 0.1966,1.25392 0.26758,1.89063 -0.0607,-0.61889 -0.12712,-1.2371 -0.20899,-1.85352 0.0323,0.0213 0.0654,0.0412 0.0977,0.0625 -0.42694,-0.2805 -0.84264,-0.57815 -1.25977,-0.87305 0.36774,0.25788 0.72727,0.52702 1.10352,0.77344 z"
         id="path2"
         style="fill:#000000;stroke-width:2.49598" />
    </g>
  </g>
</svg>
