<svg version="1.1" xmlns="http://www.w3.org/2000/svg" xmlns:xlink="http://www.w3.org/1999/xlink" width="194.63242" height="124.79922" viewBox="0,0,194.63242,124.79922"><g transform="translate(-142.68379,-117.60039)"><g data-paper-data="{&quot;isPaintingLayer&quot;:true}" stroke="none" stroke-miterlimit="10" stroke-dasharray="" stroke-dashoffset="0" style="mix-blend-mode: normal"><g stroke-linecap="butt"><path d="M306.49014,240.13107c-4.25213,1.42574 -8.72568,2.15398 -13.20521,2.26854c0.0584,-2.78296 -0.09641,-5.57072 -0.46286,-8.33007c4.17588,2.76239 8.81678,4.82247 13.66807,6.06153z" fill="#000099" fill-rule="nonzero" stroke-width="1" stroke-linejoin="round"/><path d="M158.36861,232.10803c-11.8709,-9.8464 -17.5666,-26.16414 -15.13085,-41.30654c1.89797,1.71778 3.94228,3.27365 6.10419,4.6445c12.3753,7.97455 28.74242,9.18344 42.15432,3.11212c1.83431,3.13564 3.17691,6.55801 3.96519,10.10414c2.75433,11.88681 -1.29683,25.02892 -10.27318,33.29661c-9.74419,0.02944 -19.39689,-3.55032 -26.81967,-9.85083z" fill="#000080" fill-rule="nonzero" stroke-width="1" stroke-linejoin="round"/><path d="M292.76361,234.03163c0.48888,2.70179 0.54477,5.57139 0.52132,8.34903c-7.25214,0.02263 -14.5935,-0.13788 -21.8857,-0.17694c-3.61922,-0.10037 -7.49997,0.05829 -10.95592,-0.20378c-4.72842,0.27007 -10.19195,0.11955 -15.20187,0.22858c-20.01813,0.33806 -40.03552,-0.1038 -60.05315,-0.26965c9.20604,-8.46888 13.207,-22.06222 10.06781,-34.16863c6.09412,-7.92939 14.43596,-14.11148 23.78487,-17.66804c17.68449,-6.92867 38.83873,-3.65117 53.59651,8.3048c0.54047,14.21266 8.22931,27.81275 20.12614,35.60463z" fill="#0000d5" fill-rule="nonzero" stroke-width="1" stroke-linejoin="round"/><path d="M281.01494,170.2109c-5.84065,8.11827 -8.84262,18.22556 -8.37747,28.21609c-8.56385,-6.8421 -19.22973,-10.99807 -30.16393,-11.76289c-17.96383,-1.42654 -36.30942,6.77927 -47.21902,21.12139c-0.8059,-3.2335 -2.07595,-6.35084 -3.75825,-9.22738c12.35313,-5.39041 21.91998,-16.67048 25.21455,-29.74056c11.43909,6.417 26.22661,6.16746 37.4403,-0.63822c7.4502,1.63861 15.54602,0.61528 22.26672,-3.09475c1.10974,2.03319 2.69484,3.80406 4.5971,5.12632z" fill="#000000" fill-rule="nonzero" stroke-width="1" stroke-linejoin="round"/><path d="M258.12915,192.76367c0,-6.26538 5.07911,-11.34448 11.34449,-11.34448c6.26538,0 11.34448,5.0791 11.34448,11.34448c0,6.26538 -5.0791,11.34448 -11.34448,11.34448c-6.26538,0 -11.34449,-5.0791 -11.34449,-11.34448z" fill="#0000a5" fill-rule="evenodd" stroke-width="10" stroke-linejoin="miter"/><path d="M183.25558,187.94225c0,-15.35019 12.44378,-27.79398 27.79397,-27.79398c15.35019,0 27.79398,12.44379 27.79398,27.79398c0,15.35019 -12.44379,27.79398 -27.79398,27.79398c-15.35019,0 -27.79397,-12.44379 -27.79397,-27.79398z" fill="#000099" fill-rule="evenodd" stroke-width="10" stroke-linejoin="miter"/><path d="M288.32633,153.78257c0.29197,-1.51937 1.66526,-1.33894 2.85553,-1.48256c4.09108,-0.18934 8.1931,0.41024 12.15667,1.40082c-8.9303,2.97571 -16.86401,8.84183 -22.32358,16.51007c-1.90175,-1.32239 -3.48787,-3.09304 -4.5971,-5.12632c4.8687,-2.639 9.01907,-6.57763 11.90848,-11.30201z" fill="#000078" fill-rule="nonzero" stroke-width="1" stroke-linejoin="round"/><path d="M260.68165,172.05998c0,-6.57865 5.33305,-11.9117 11.9117,-11.9117c6.57865,0 11.91171,5.33305 11.91171,11.9117c0,6.57865 -5.33306,11.9117 -11.91171,11.9117c-6.57865,0 -11.9117,-5.33305 -11.9117,-11.9117z" fill="#00009f" fill-rule="evenodd" stroke-width="10" stroke-linejoin="miter"/><path d="M319.49125,161.51565c12.74719,9.49687 19.65823,26.07796 17.40209,41.81724c-2.03559,16.74092 -14.38089,31.59903 -30.4032,36.79818c-6.35157,-1.62007 -12.33621,-4.65444 -17.40105,-8.81506c-12.51804,-10.07232 -18.79651,-27.16698 -15.76601,-42.94735c2.73482,-15.87694 14.69463,-29.68847 30.01544,-34.66783c5.83658,1.48607 11.36278,4.16478 16.15273,7.81482z" fill="#0000bf" fill-rule="nonzero" stroke-width="1" stroke-linejoin="round"/><path d="M230.33517,178.58305c0,-9.86798 7.99958,-17.86755 17.86756,-17.86755c9.86798,0 17.86756,7.99957 17.86756,17.86755c0,9.86798 -7.99958,17.86756 -17.86756,17.86756c-9.86798,0 -17.86756,-7.99958 -17.86756,-17.86756z" fill="#000054" fill-rule="evenodd" stroke-width="10" stroke-linejoin="miter"/><path d="M217.21634,166.64538c3.20559,-14.91246 -1.94138,-31.24257 -13.11516,-41.62509c3.62753,-2.55694 7.80924,-4.50937 12.1099,-5.75941c15.24836,-4.55239 32.85021,0.46191 43.28887,12.51424c4.06981,4.94102 7.52053,10.35528 11.28289,15.53084c-2.66939,8.37571 -8.38092,15.73301 -15.83867,20.38838c-11.30477,7.25772 -26.52205,7.70195 -38.23335,1.12321c0.18743,-0.71944 0.35725,-1.44362 0.50552,-2.17217z" fill="#0000c8" fill-rule="nonzero" stroke-width="1" stroke-linejoin="round"/><path d="M149.73573,173.09973c7.53499,-12.33455 21.90774,-20.4561 36.47308,-19.32781c1.39541,-11.59287 8.14088,-22.34525 17.87656,-28.76584c10.79909,10.03864 16.01063,25.63254 13.41216,40.14644c-2.55939,15.90427 -14.43133,29.82212 -29.72951,34.86373c-15.07048,5.29147 -32.79555,1.61796 -44.53027,-9.21474c0.91662,-6.26377 3.12378,-12.3419 6.49796,-17.70176z" fill="#0000ff" fill-rule="nonzero" stroke-width="1" stroke-linejoin="round"/><path d="M270.78284,147.30596c1.84042,2.60555 3.68084,5.21111 5.52125,7.81665c4.08008,-1.53144 8.41395,-2.28879 12.75025,-2.5908c-1.74232,3.15993 -4.03067,6.01767 -6.73136,8.41064c-7.49485,6.73864 -18.30939,9.51132 -28.12131,7.20528c7.82108,-4.63134 13.82158,-12.183 16.58116,-20.84177z" fill="#0000ff" fill-rule="nonzero" stroke-width="1" stroke-linejoin="round"/></g><path d="M259.4521,162.76316l12.69107,3.15002c1.08186,0.26853 1.8018,0.7049 2.15983,1.30912c0.36668,0.59901 0.41576,1.43945 0.14724,2.52131l-8.20553,33.05917c-0.45099,1.81697 -0.9438,3.49104 -1.47845,5.02221c-0.52599,1.52595 -1.41733,3.24835 -2.674,5.1672l-7.14135,10.52979c-0.49605,0.78243 -1.08857,1.40472 -1.77754,1.86687c-0.68896,0.46214 -1.48768,0.58048 -2.39617,0.35498l-11.32833,-2.81177c-0.90849,-0.22549 -1.6847,-0.62798 -2.32863,-1.20745c-0.63528,-0.58469 -0.95459,-1.35968 -0.95795,-2.32496l-0.47481,-14.86076c-0.02529,-0.60998 -0.14213,-1.04391 -0.35053,-1.30177c-0.20668,-0.2648 -0.47993,-0.43938 -0.81974,-0.52373c0,0 -0.28589,-0.07095 -0.41941,-0.1041c-0.12204,-0.03029 -0.35038,-0.08696 -0.35038,-0.08696c-0.33981,-0.08435 -0.66298,-0.05781 -0.96949,0.07963c-0.3048,0.13049 -0.61445,0.45855 -0.92898,0.98419l-7.45191,12.89329c-0.43364,0.79792 -1.01937,1.33355 -1.75717,1.60689c-0.72915,0.26812 -1.54796,0.28943 -2.45645,0.06394l-11.24511,-2.79112c-0.90849,-0.22549 -1.61811,-0.70347 -2.12885,-1.43394c-0.51075,-0.73048 -0.79553,-1.58524 -0.85437,-2.5643l-1.34739,-12.81346c-0.21876,-2.29242 -0.20386,-4.23603 0.04475,-5.83083c0.24859,-1.5948 0.59839,-3.30069 1.04937,-5.11766l8.16422,-32.89274c0.26853,-1.08186 0.70144,-1.80267 1.29872,-2.16241c0.60595,-0.36497 1.44637,-0.41403 2.5213,-0.14723l13.12797,3.25845c1.08186,0.26853 1.80181,0.7049 2.15983,1.30912c0.36668,0.59901 0.41576,1.43944 0.14723,2.5213l-7.78208,31.35317l7.6058,-9.50896c0.69698,-0.85037 1.46207,-1.38195 2.2953,-1.59479c0.84188,-0.21805 1.80029,-0.19367 2.87521,0.07314l3.57846,0.8882c1.08186,0.26853 1.94043,0.69513 2.5757,1.27982c0.64393,0.57948 1.07165,1.40715 1.28316,2.483l2.28699,11.96442l7.78208,-31.35317c0.26853,-1.08186 0.70143,-1.80267 1.29872,-2.16241c0.60595,-0.36497 1.44985,-0.41317 2.53171,-0.14465z" fill="#ffffff" fill-rule="nonzero" stroke-width="1" stroke-linecap="square" stroke-linejoin="miter"/></g></g></svg>